<svg width="500" height="500" viewBox="0 0 500 500" fill="none" xmlns="http://www.w3.org/2000/svg">
<path d="M241.898 113.824C246.06 115.325 250.069 116.966 254 119C254 119.66 254 120.32 254 121C254.701 121.227 255.402 121.454 256.125 121.688C262.24 124.479 266.259 129.123 270.062 134.5C270.493 135.105 270.923 135.71 271.367 136.334C279.843 148.701 283.041 163.241 280.667 178.079C277.037 195.504 266.767 209.811 254 222C253.34 222 252.68 222 252 222C252 222.66 252 223.32 252 224C251.34 224 250.68 224 250 224C250 224.66 250 225.32 250 226C249.34 226 248.68 226 248 226C247.01 227.98 247.01 227.98 246 230C245.34 230 244.68 230 244 230C243.01 231.98 243.01 231.98 242 234C241.34 234 240.68 234 240 234C239.785 234.534 239.569 235.067 239.348 235.617C237.504 238.877 235 241.428 232.437 244.125C228.814 247.764 228.814 247.764 226 252C225.34 252 224.68 252 224 252C223.794 252.804 223.587 253.609 223.375 254.438C222.179 257.536 220.98 259.672 219.125 262.375C207.615 279.151 205.789 297.887 208.344 317.66C209.768 325.205 212.802 333.209 217.312 339.438C219.174 342.264 219.39 343.686 219 347C212.515 346.724 207.929 344.214 203 340C203 339.34 203 338.68 203 338C202.34 338 201.68 338 201 338C201 337.34 201 336.68 201 336C200.165 335.66 200.165 335.66 199.312 335.313C196.338 333.625 194.28 331.533 192 329C192 328.34 192 327.68 192 327C191.34 327 190.68 327 190 327C189.01 324.525 189.01 324.525 188 322C187.34 322 186.68 322 186 322C172.956 300.028 167.33 278.117 173.027 252.746C176.061 241.062 181.33 231.005 188 221C188.66 221 189.32 221 190 221C190.251 220.432 190.503 219.863 190.762 219.277C195.115 211.271 203.269 204.632 209.745 198.291C212.747 195.433 212.747 195.433 215 192C215.66 192 216.32 192 217 192C217.26 191.438 217.521 190.876 217.789 190.297C219.124 187.765 220.689 185.562 222.375 183.25C230.614 171.568 232.979 161.352 232 147C230.987 141.452 228.407 136.837 225.812 131.875C221.857 124.092 221.857 124.092 223 119C228.367 112.503 233.919 111.555 241.898 113.824Z" fill="#35EBBB"/>
<path d="M315 169.312C321.088 173.702 324.489 183.207 325.754 190.406C327.396 207.719 323.775 221.6 316 237C315.34 237 314.68 237 314 237C313.629 238.083 313.629 238.083 313.25 239.187C311.877 242.276 310.276 244.51 308 247C307.34 247 306.68 247 306 247C305.613 247.874 305.613 247.874 305.219 248.766C303.902 251.18 302.449 252.817 300.5 254.75C299.892 255.364 299.283 255.977 298.656 256.609C297 258 297 258 295 258C295 258.66 295 259.32 295 260C294.34 260 293.68 260 293 260C293 260.66 293 261.32 293 262C291.777 263.199 291.777 263.199 289.937 264.687C285.426 268.515 281.245 272.633 277.062 276.812C276.388 277.483 275.713 278.154 275.017 278.844C274.384 279.48 273.75 280.115 273.098 280.77C272.239 281.63 272.239 281.63 271.364 282.507C269.899 283.974 269.899 283.974 269 286C268.34 286 267.68 286 267 286C266.732 286.557 266.464 287.114 266.187 287.687C264.891 290.212 263.575 292.637 262 295C261.34 295 260.68 295 260 295C259.34 296.98 258.68 298.96 258 301C257.34 301 256.68 301 256 301C255.894 301.543 255.789 302.085 255.68 302.645C254.84 305.553 253.533 308.008 252.125 310.688C245.288 324.263 243.265 336.243 248 351C248.287 351.908 248.575 352.815 248.871 353.75C249.554 355.842 250.273 357.923 251 360C249.187 361.062 249.187 361.062 247 362C246.01 361.67 245.02 361.34 244 361C244 360.34 244 359.68 244 359C242.886 358.629 242.886 358.629 241.75 358.25C238.77 356.895 237.101 355.49 235 353C235 352.34 235 351.68 235 351C234.34 351 233.68 351 233 351C233 350.34 233 349.68 233 349C232.34 349 231.68 349 231 349C222.01 339.252 216.98 322.367 217.008 309.379C217.369 301.572 218.471 294.392 221 287C221.266 286.194 221.531 285.389 221.805 284.559C224.469 277.215 228.423 270.321 233 264C233.66 264 234.32 264 235 264C235.282 263 235.282 263 235.57 261.98C237.611 257.727 240.641 254.708 243.875 251.312C244.813 250.298 244.813 250.298 245.77 249.264C248.698 246.153 251.05 243.753 255 242C255 241.34 255 240.68 255 240C255.66 240 256.32 240 257 240C257 239.34 257 238.68 257 238C258.574 236.484 258.574 236.484 260.687 234.75C263.353 232.499 265.71 230.299 267.875 227.562C268.927 226.294 268.927 226.294 270 225C270.66 225 271.32 225 272 225C272 224.34 272 223.68 272 223C272.66 223 273.32 223 274 223C274.387 222.172 274.387 222.172 274.781 221.328C276.18 218.657 277.788 216.231 279.5 213.75C280.108 212.858 280.717 211.966 281.344 211.047C281.89 210.371 282.437 209.696 283 209C283.66 209 284.32 209 285 209C285.371 207.732 285.371 207.732 285.75 206.437C287 203 287 203 288.812 200.062C290.945 196.487 292.218 192.69 293.5 188.75C293.713 188.099 293.926 187.449 294.146 186.779C295.128 183.757 296.081 180.731 296.996 177.687C299.279 170.564 299.279 170.564 302.875 167.75C307.681 166.597 310.526 167.355 315 169.312Z" fill="#559AF9"/>
<path d="M319 270C323.117 273.514 324.782 278.032 325.371 283.348C325.638 298.28 320.327 308.355 310.187 319.062C308 321 308 321 306 321C305.67 321.99 305.34 322.98 305 324C303.223 325.605 303.223 325.605 301.062 327.187C300.352 327.717 299.642 328.247 298.91 328.793C297 330 297 330 295 330C295 330.66 295 331.32 295 332C289.588 336 289.588 336 287 336C287 336.66 287 337.32 287 338C284.525 338.99 284.525 338.99 282 340C282 340.66 282 341.32 282 342C280.488 343.33 278.913 344.59 277.312 345.812C274.38 348.09 271.556 350.305 269 353C268.01 353.99 268.01 353.99 267 355C266.34 355 265.68 355 265 355C265 355.66 265 356.32 265 357C263.02 357.99 263.02 357.99 261 359C256.713 355.284 255.305 351.669 254.664 346.062C254.451 329.353 261.032 317.451 270 304C270.66 304 271.32 304 272 304C272.66 302.35 273.32 300.7 274 299C274.66 299 275.32 299 276 299C276.464 298.072 276.464 298.072 276.937 297.125C277.625 295.75 278.312 294.375 279 293C279.66 293 280.32 293 281 293C281 292.34 281 291.68 281 291C281.66 291 282.32 291 283 291C283 290.34 283 289.68 283 289C283.66 289 284.32 289 285 289C285 288.34 285 287.68 285 287C285.66 287 286.32 287 287 287C287 286.34 287 285.68 287 285C287.66 285 288.32 285 289 285C289 284.34 289 283.68 289 283C289.66 283 290.32 283 291 283C291 282.34 291 281.68 291 281C293.053 279.41 295.097 277.943 297.25 276.5C297.837 276.097 298.423 275.693 299.027 275.277C305.858 270.627 310.627 268.751 319 270Z" fill="#6E73FC"/>
<path d="M182 234C182.66 235.32 183.32 236.64 184 238C183.381 238.454 182.762 238.907 182.125 239.375C179.072 243.146 178.391 247.213 178 252C178.394 254.228 178.394 254.228 179 256C177.68 256 176.36 256 175 256C175.012 256.638 175.023 257.276 175.035 257.934C175.044 258.76 175.053 259.586 175.062 260.438C175.074 261.261 175.086 262.085 175.098 262.934C175 265 175 265 174 266C173.706 269.722 173.852 270.778 176 274C175.54 275.123 175.54 275.123 175.07 276.27C173.688 279.795 174.192 281.992 174.875 285.688C176 291.975 176 291.975 176 294C176.66 294.33 177.32 294.66 178 295C178.99 295.66 179.98 296.32 181 297C181 297.99 181 298.98 181 300C181.307 301.464 181.643 302.922 182 304.375C182.761 307.661 183.219 310.608 183 314C184.65 314.33 186.3 314.66 188 315C188 315.99 188 316.98 188 318C189.485 318.495 189.485 318.495 191 319C193.187 320.438 193.187 320.438 195 322C195 322.66 195 323.32 195 324C196.98 323.01 196.98 323.01 199 322C199.495 322.495 199.495 322.495 200 323C200.124 322.237 200.247 321.474 200.375 320.688C201 318 201 318 203 315C203.275 312.677 203.275 312.677 203.195 310.113C203.186 308.707 203.186 308.707 203.176 307.271C203.159 306.295 203.142 305.319 203.125 304.312C203.116 303.324 203.107 302.336 203.098 301.318C203.074 298.879 203.041 296.439 203 294C202.67 294 202.34 294 202 294C202.021 292.928 202.041 291.855 202.062 290.75C202.014 287.852 201.868 285.714 201 283C201.99 282.34 202.98 281.68 204 281C204.99 281.66 205.98 282.32 207 283C206.928 283.718 206.856 284.436 206.781 285.176C206.083 292.966 205.919 300.644 206.037 308.462C206.08 312.457 206.007 316.099 205 320C205.99 320.33 206.98 320.66 208 321C211.646 324.944 212.941 329.939 214.719 334.906C215.882 337.716 217.17 339.616 219 342C219.187 344.75 219.187 344.75 219 347C212.515 346.724 207.929 344.214 203 340C203 339.34 203 338.68 203 338C202.34 338 201.68 338 201 338C201 337.34 201 336.68 201 336C200.443 335.773 199.886 335.546 199.312 335.312C196.338 333.624 194.28 331.533 192 329C192 328.34 192 327.68 192 327C191.34 327 190.68 327 190 327C189.34 325.35 188.68 323.7 188 322C187.34 322 186.68 322 186 322C172.853 299.854 167.621 278.31 173.012 252.785C177.056 237.296 177.056 237.296 182 234Z" fill="#38F4AB"/>
<path d="M253 242C253.66 242.33 254.32 242.66 255 243C254.374 243.592 253.747 244.183 253.102 244.793C252.284 245.583 251.467 246.373 250.625 247.188C249.813 247.965 249.001 248.742 248.164 249.543C244.806 253.355 244 255.934 244 261C244 261.66 244 262.32 244 263C242.02 263.33 240.04 263.66 238 264C238.33 264.99 238.66 265.98 239 267C238.67 267.66 238.34 268.32 238 269C238.66 269.33 239.32 269.66 240 270C239.67 270.66 239.34 271.32 239 272C238.237 271.897 237.474 271.794 236.687 271.688C235.801 271.791 234.914 271.894 234 272C232.174 274.321 232.174 274.321 231 277C230.67 277.66 230.34 278.32 230 279C230.66 279.66 231.32 280.32 232 281C229.525 281.495 229.525 281.495 227 282C227.33 282.99 227.66 283.98 228 285C227.34 285.66 226.68 286.32 226 287C224.292 289.883 223.702 292.238 223.437 295.562C223.21 298.321 222.886 300.341 222 303C221.051 308.117 220.401 312.261 223 317C222.34 317 221.68 317 221 317C221.186 317.784 221.371 318.567 221.562 319.375C222 322 222 322 221 324C221.66 324 222.32 324 223 324C223.205 324.687 223.41 325.374 223.621 326.082C223.891 326.983 224.16 327.884 224.437 328.812C224.704 329.706 224.971 330.599 225.246 331.52C225.804 333.355 226.393 335.18 227 337C228.98 336.505 228.98 336.505 231 336C231 340 231 340 230 342C230.66 342 231.32 342 232 342C232.351 342.969 232.701 343.939 233.062 344.938C234.75 348.394 234.75 348.394 238.687 348.875C239.781 348.916 240.874 348.957 242 349C242.159 345.103 242.038 342.123 240.875 338.375C239.869 334.496 240.296 333.497 242 330C242.376 328.008 242.72 326.008 243 324C242.01 324 241.02 324 240 324C240.495 322.515 240.495 322.515 241 321C241.495 321.99 241.495 321.99 242 323C242.66 323 243.32 323 244 323C243.67 322.01 243.34 321.02 243 320C243.66 320 244.32 320 245 320C244.67 318.35 244.34 316.7 244 315C245.65 315 247.3 315 249 315C248.7 316.076 248.399 317.153 248.09 318.262C244.469 331.867 244.12 342.104 250.137 355.223C251 358 251 358 250.145 360.371C249.767 360.909 249.389 361.446 249 362C247.35 361.67 245.7 361.34 244 361C244 360.34 244 359.68 244 359C242.886 358.629 242.886 358.629 241.75 358.25C238.77 356.895 237.101 355.49 235 353C235 352.34 235 351.68 235 351C234.34 351 233.68 351 233 351C233 350.34 233 349.68 233 349C232.34 349 231.68 349 231 349C222.01 339.252 216.98 322.367 217.008 309.379C217.369 301.572 218.471 294.392 221 287C221.266 286.194 221.531 285.389 221.805 284.559C224.469 277.215 228.423 270.321 233 264C233.66 264 234.32 264 235 264C235.186 263.334 235.371 262.667 235.562 261.98C237.624 257.706 240.724 254.704 244 251.312C244.642 250.636 245.284 249.96 245.945 249.264C248.273 246.817 250.612 244.388 253 242Z" fill="#3DD9E1"/>
<path d="M315 169.313C321.088 173.702 324.489 183.207 325.754 190.406C327.397 207.719 323.775 221.6 316 237C315.34 237 314.68 237 314 237C313.752 237.722 313.505 238.444 313.25 239.188C311.89 242.247 310.171 244.467 308 247C306 246 306 246 305.312 244.063C305 242 305 242 306 240C306.804 239.753 307.609 239.505 308.438 239.25C311.26 238.198 311.26 238.198 312.375 235.188C313 231.999 312.907 230.085 312 227C314.475 226.505 314.475 226.505 317 226C317 225.34 317 224.68 317 224C317.99 223.34 318.98 222.68 320 222C320.317 220.064 320.63 218.123 320.789 216.168C321 214 321 214 321.488 211.789C322.195 207.936 322.363 204.096 322.562 200.188C322.606 199.399 322.649 198.611 322.693 197.799C322.799 195.866 322.9 193.933 323 192C322.34 191.67 321.68 191.34 321 191C321 190.34 321 189.68 321 189C320.67 188.051 320.34 187.103 320 186.125C319 183 319 183 319 179C318.01 179.33 317.02 179.66 316 180C315.588 179.546 315.175 179.093 314.75 178.625C313.086 176.908 313.086 176.908 310.938 176.063C308.544 174.75 307.996 173.49 307 171C306.01 171.495 306.01 171.495 305 172C304.609 174.061 304.609 174.061 304.5 176.438C304.221 180.779 304.221 180.779 302 183C302 183.99 302 184.98 302 186C300.905 193.149 300.905 193.149 297.875 196C297.256 196.33 296.637 196.66 296 197C296.66 195.35 297.32 193.7 298 192C296.68 192 295.36 192 294 192C293.67 192.66 293.34 193.32 293 194C294.085 188.664 295.374 183.422 296.875 178.188C297.182 177.109 297.489 176.03 297.805 174.918C299.1 171.755 300.366 170.148 303 168C307.563 166.479 310.655 167.412 315 169.313Z" fill="#8679F3"/>
<path d="M266 131C275.324 139.227 280.392 151.17 281.238 163.461C281.692 187.394 271.202 202.984 255.812 220.27C254 222 254 222 252 222C252 222.66 252 223.32 252 224C251.34 224 250.68 224 250 224C250 224.66 250 225.32 250 226C249.34 226 248.68 226 248 226C247.34 227.32 246.68 228.64 246 230C245.34 229.67 244.68 229.34 244 229C244.564 225.729 245.457 224.136 248 222C248.99 221.505 248.99 221.505 250 221C250 220.34 250 219.68 250 219C249.34 219 248.68 219 248 219C248.66 217.68 249.32 216.36 250 215C250.598 215.206 251.196 215.412 251.812 215.625C254.285 216.307 254.285 216.307 257 214C257 213.01 257 212.02 257 211C257.33 210.01 257.66 209.02 258 208C259.65 208 261.3 208 263 208C263.062 207.051 263.124 206.103 263.188 205.125C263.456 204.094 263.724 203.062 264 202C265.667 201.333 267.333 200.667 269 200C269.747 197.02 269.747 197.02 270 194C270.66 193.34 271.32 192.68 272 192C272.46 189.797 272.46 189.797 272.625 187.375C272.7 186.558 272.775 185.74 272.852 184.898C272.925 183.959 272.925 183.959 273 183C274.485 183.495 274.485 183.495 276 184C275.827 183.335 275.655 182.67 275.477 181.984C274.896 178.346 275.094 174.9 275.375 171.25C275.419 170.566 275.463 169.881 275.508 169.176C275.867 164.133 275.867 164.133 277 163C277.041 161 277.043 159 277 157C276.34 157 275.68 157 275 157C275.33 154.69 275.66 152.38 276 150C274.68 149.67 273.36 149.34 272 149C272.66 149 273.32 149 274 149C273.894 146.548 273.894 146.548 273 144C270.524 142.625 270.524 142.625 268 142C267.658 139.021 267.658 139.021 267.316 136.043C267.028 133.806 267.028 133.806 266 131Z" fill="#63B7EE"/>
<path d="M182 234C182.66 235.32 183.32 236.64 184 238C183.381 238.454 182.762 238.907 182.125 239.375C179.072 243.146 178.391 247.213 178 252C178.394 254.228 178.394 254.228 179 256C177.68 256 176.36 256 175 256C175.012 256.638 175.023 257.276 175.035 257.934C175.044 258.76 175.053 259.586 175.062 260.438C175.074 261.261 175.086 262.085 175.098 262.934C175 265 175 265 174 266C173.706 269.722 173.852 270.778 176 274C175.54 275.123 175.54 275.123 175.07 276.27C173.688 279.795 174.192 281.992 174.875 285.688C176 291.975 176 291.975 176 294C176.66 294.33 177.32 294.66 178 295C178.99 295.66 179.98 296.32 181 297C181 297.99 181 298.98 181 300C181.307 301.464 181.643 302.922 182 304.375C182.761 307.661 183.219 310.608 183 314C184.65 314.33 186.3 314.66 188 315C188 315.99 188 316.98 188 318C189.485 318.495 189.485 318.495 191 319C193.187 320.438 193.187 320.438 195 322C195 322.66 195 323.32 195 324C195.66 324.33 196.32 324.66 197 325C196.67 325.66 196.34 326.32 196 327C196 327.66 196 328.32 196 329C197.485 329.495 197.485 329.495 199 330C199.062 330.784 199.124 331.567 199.187 332.375C199.456 333.241 199.724 334.108 200 335C201.654 335.697 203.323 336.361 205 337C206.812 339.625 206.812 339.625 208 342C206.35 341.34 204.7 340.68 203 340C203 339.34 203 338.68 203 338C202.34 338 201.68 338 201 338C201 337.34 201 336.68 201 336C200.443 335.773 199.886 335.546 199.312 335.312C196.338 333.624 194.28 331.533 192 329C192 328.34 192 327.68 192 327C191.34 327 190.68 327 190 327C189.34 325.35 188.68 323.7 188 322C187.34 322 186.68 322 186 322C172.853 299.854 167.621 278.31 173.012 252.785C177.056 237.296 177.056 237.296 182 234Z" fill="#6AF782"/>
<path d="M257 374C259.937 375.438 259.937 375.438 262 378C262.71 381.47 262.698 384.529 262 388C259.843 390.923 258.372 391.722 254.84 392.438C250.35 392.797 248.508 392.396 244.875 389.563C242.534 386.128 242.505 383.075 243.23 379.063C244 377 244 377 246.625 374.375C250.742 372.698 252.75 372.764 257 374Z" fill="#4BA4F9"/>
<path d="M319 270C323.117 273.514 324.782 278.032 325.371 283.348C325.586 295.396 322.538 304.523 315 314C312.64 311.64 312.509 310.221 312 307C312.99 306.505 312.99 306.505 314 306C314.66 306.33 315.32 306.66 316 307C316.33 306.01 316.66 305.02 317 304C317.66 304 318.32 304 319 304C319.33 300.37 319.66 296.74 320 293C320.99 292.67 321.98 292.34 323 292C322.856 291.134 322.711 290.267 322.562 289.375C322.212 287.274 321.876 285.17 321.562 283.062C320.929 279.612 320.008 276.359 319 273C317.02 273 315.04 273 313 273C311.68 275.31 310.36 277.62 309 280C308.67 279.01 308.34 278.02 308 277C307.67 277.66 307.34 278.32 307 279C305.682 279.39 304.343 279.71 303 280C301.989 280.371 300.979 280.742 299.938 281.125C297 282 297 282 294 281C293.67 281.99 293.34 282.98 293 284C292.34 283.67 291.68 283.34 291 283C291 282.34 291 281.68 291 281C293.053 279.41 295.097 277.943 297.25 276.5C298.13 275.895 298.13 275.895 299.027 275.277C305.858 270.627 310.627 268.751 319 270Z" fill="#A06AEE"/>
<path d="M244 315C245.65 315 247.3 315 249 315C248.7 316.076 248.399 317.153 248.09 318.262C244.469 331.867 244.12 342.104 250.137 355.223C251 358 251 358 250.145 360.371C249.767 360.909 249.389 361.446 249 362C247.35 361.67 245.7 361.34 244 361C244 360.34 244 359.68 244 359C243.257 358.752 242.515 358.505 241.75 358.25C238.77 356.895 237.101 355.49 235 353C235 352.34 235 351.68 235 351C234.34 351 233.68 351 233 351C233 350.34 233 349.68 233 349C232.34 349 231.68 349 231 349C230.34 347.35 229.68 345.7 229 344C230.875 344.312 230.875 344.312 233 345C233.66 345.99 234.32 346.98 235 348C238.568 348.736 238.568 348.736 242 349C242.159 345.103 242.038 342.123 240.875 338.375C239.869 334.496 240.296 333.497 242 330C242.376 328.008 242.72 326.008 243 324C242.01 324 241.02 324 240 324C240.33 323.01 240.66 322.02 241 321C241.33 321.66 241.66 322.32 242 323C242.66 323 243.32 323 244 323C243.67 322.01 243.34 321.02 243 320C243.66 320 244.32 320 245 320C244.67 318.35 244.34 316.7 244 315Z" fill="#43B7EF"/>
<path d="M241.898 113.824C246.06 115.325 250.069 116.966 254 119C254 119.66 254 120.32 254 121C254.701 121.227 255.402 121.454 256.125 121.688C259.693 123.317 262.065 125.406 265 128C264.67 128.66 264.34 129.32 264 130C261.5 128.625 261.5 128.625 259 127C259 126.34 259 125.68 259 125C258.402 124.856 257.804 124.711 257.188 124.563C255.438 124.113 253.713 123.571 252 123C252 122.34 252 121.68 252 121C250.02 121 248.04 121 246 121C245.67 120.01 245.34 119.02 245 118C242.69 118 240.38 118 238 118C238 117.34 238 116.68 238 116C236.35 116.33 234.7 116.66 233 117C232.845 118.392 232.845 118.392 232.688 119.813C231.995 123.025 231.612 124.119 229 126C228.34 126 227.68 126 227 126C227 127.32 227 128.64 227 130C227.66 130 228.32 130 229 130C229 131.65 229 133.3 229 135C225.5 133.25 224.355 129.535 223 126C222.438 122.313 222.438 122.313 223 119C228.367 112.503 233.919 111.555 241.898 113.824Z" fill="#31EBD6"/>
<path d="M182 234C182.66 235.32 183.32 236.64 184 238C183.381 238.454 182.763 238.907 182.125 239.375C179.072 243.146 178.391 247.213 178 252C178.394 254.228 178.394 254.228 179 256C177.68 256 176.36 256 175 256C175.012 256.638 175.023 257.276 175.035 257.934C175.044 258.76 175.053 259.586 175.063 260.438C175.074 261.261 175.086 262.085 175.098 262.934C175 265 175 265 174 266C173.706 269.722 173.852 270.778 176 274C175.54 275.123 175.54 275.123 175.07 276.27C173.688 279.795 174.192 281.992 174.875 285.688C176 291.975 176 291.975 176 294C175.01 294 174.02 294 173 294C168.379 275.269 170.074 253.254 179 236C179.99 235.34 180.98 234.68 182 234Z" fill="#88F796"/>
<path d="M270 225C270.66 225.33 271.32 225.66 272 226C269.807 232.2 267.756 237.363 263 242C261.677 242.372 260.343 242.706 259 243C256.104 245.146 256.104 245.146 254 248C254.23 250.655 254.23 250.655 255 253C253 255 253 255 251.188 255.375C248.194 256.23 246.334 257.99 244 260C243.34 259.34 242.68 258.68 242 258C242.66 257.34 243.32 256.68 244 256C244.287 255.219 244.575 254.438 244.871 253.633C246.163 250.62 247.669 249.09 250.062 246.875C253.261 243.934 253.261 243.934 255 240C255.66 240 256.32 240 257 240C257 239.34 257 238.68 257 238C258.574 236.484 258.574 236.484 260.688 234.75C264.24 231.74 267.14 228.665 270 225Z" fill="#41BCEB"/>
<path d="M272 193C272.99 193.33 273.98 193.66 275 194C273.538 198.321 271.234 201.643 268.438 205.188C267.999 205.75 267.56 206.312 267.107 206.891C262.993 212.107 258.808 217.409 254 222C253.34 222 252.68 222 252 222C252 222.66 252 223.32 252 224C251.34 224 250.68 224 250 224C250 224.66 250 225.32 250 226C249.34 226 248.68 226 248 226C247.34 227.32 246.68 228.64 246 230C245.34 229.67 244.68 229.34 244 229C244.564 225.729 245.457 224.136 248 222C248.66 221.67 249.32 221.34 250 221C250 220.34 250 219.68 250 219C249.34 219 248.68 219 248 219C248.66 217.68 249.32 216.36 250 215C250.598 215.206 251.196 215.412 251.812 215.625C254.285 216.307 254.285 216.307 257 214C257 213.01 257 212.02 257 211C257.33 210.01 257.66 209.02 258 208C259.65 208 261.3 208 263 208C263.062 207.051 263.124 206.103 263.188 205.125C263.456 204.094 263.724 203.062 264 202C265.667 201.333 267.333 200.667 269 200C269.74 196.977 269.74 196.977 270 194C270.66 193.67 271.32 193.34 272 193Z" fill="#5CCDED"/>
<path d="M324 194C324.33 194 324.66 194 325 194C325.593 206.749 325.557 217.272 320 229C319.597 229.868 319.193 230.735 318.777 231.629C317.897 233.442 316.958 235.226 316 237C315.34 237 314.68 237 314 237C313.752 237.722 313.505 238.444 313.25 239.188C311.89 242.247 310.171 244.467 308 247C306 246 306 246 305.312 244.062C305 242 305 242 306 240C306.804 239.752 307.609 239.505 308.437 239.25C311.26 238.198 311.26 238.198 312.375 235.188C313 231.999 312.907 230.085 312 227C314.475 226.505 314.475 226.505 317 226C317 225.34 317 224.68 317 224C317.99 223.34 318.98 222.68 320 222C320.317 220.064 320.63 218.123 320.789 216.168C321 214 321 214 321.492 211.691C322.346 207.165 322.452 202.577 322.719 197.984C323 195 323 195 324 194Z" fill="#B27DEB"/>
<path d="M221 296C222.062 297.812 222.062 297.812 223 300C222.67 300.99 222.34 301.98 222 303C221.051 308.117 220.401 312.261 223 317C222.34 317 221.68 317 221 317C221.186 317.784 221.371 318.567 221.562 319.375C222 322 222 322 221 324C221.66 324 222.32 324 223 324C223.205 324.687 223.41 325.374 223.621 326.082C223.89 326.983 224.16 327.884 224.437 328.812C224.704 329.706 224.971 330.599 225.246 331.52C225.804 333.355 226.393 335.18 227 337C228.98 336.505 228.98 336.505 231 336C231 340 231 340 230 342C230.66 342 231.32 342 232 342C232 342.99 232 343.98 232 345C229.017 344.087 227.365 343.511 225.523 340.934C225.144 340.11 224.765 339.286 224.375 338.438C223.991 337.632 223.607 336.826 223.211 335.996C222.811 335.007 222.412 334.019 222 333C221.735 332.368 221.469 331.737 221.196 331.086C218.718 324.607 218.582 318.567 218.687 311.688C218.683 310.082 218.683 310.082 218.678 308.443C218.737 299.845 218.737 299.845 221 296Z" fill="#54DCDD"/>
<path d="M255 336C255.33 336 255.66 336 256 336C256.217 337.423 256.217 337.423 256.438 338.875C256.829 341.893 256.829 341.893 258 344C258.66 344 259.32 344 260 344C260 344.66 260 345.32 260 346C259.34 346 258.68 346 258 346C259.165 349.078 259.165 349.078 261.824 350.816C264.087 351.224 264.087 351.224 266.035 349.75C266.704 349.173 267.373 348.595 268.062 348C270.098 346.25 270.098 346.25 272 345C272.99 345.33 273.98 345.66 275 346C274.092 347.132 273.173 348.255 272.25 349.375C271.74 350.001 271.229 350.628 270.703 351.273C268.918 353.083 267.321 354.001 265 355C265 355.66 265 356.32 265 357C263.02 357.99 263.02 357.99 261 359C257.464 355.935 256.2 353.499 255 349C254.805 345.57 254.805 345.57 254.875 342.125C254.893 340.973 254.911 339.82 254.93 338.633C254.953 337.764 254.976 336.895 255 336Z" fill="#7DABF0"/>
<path d="M229 344C231.878 344.343 232.801 344.748 234.633 347.066C235.371 348.302 235.371 348.302 236.125 349.562C237.034 351.072 237.982 352.561 239 354C239.66 354 240.32 354 241 354C241.99 354 242.98 354 244 354C243.773 353.257 243.546 352.515 243.312 351.75C243 349 243 349 244.48 346.828C244.982 346.225 245.483 345.622 246 345C246.894 347.075 247.764 349.161 248.625 351.25C249.356 352.99 249.356 352.99 250.102 354.766C251 358 251 358 250.148 360.422C249.769 360.943 249.39 361.463 249 362C247.35 361.67 245.7 361.34 244 361C244 360.34 244 359.68 244 359C243.257 358.752 242.515 358.505 241.75 358.25C238.77 356.895 237.101 355.49 235 353C235 352.34 235 351.68 235 351C234.34 351 233.68 351 233 351C233 350.34 233 349.68 233 349C232.34 349 231.68 349 231 349C230.34 347.35 229.68 345.7 229 344Z" fill="#63BFF3"/>
<path d="M198 210C198 210.99 198 211.98 198 213C197.34 213.66 196.68 214.32 196 215C196.33 215.66 196.66 216.32 197 217C197.04 219 197.043 221 197 223C195.35 223.66 193.7 224.32 192 225C192 226.98 192 228.96 192 231C187.25 232.125 187.25 232.125 185 231C185.75 224.375 185.75 224.375 188 221C188.66 221 189.32 221 190 221C190.266 220.417 190.531 219.835 190.805 219.234C192.033 216.938 193.403 215.196 195.125 213.25C195.664 212.636 196.203 212.023 196.758 211.391C197.373 210.702 197.373 210.702 198 210Z" fill="#6CF9A6"/>
<path d="M209 324C212.108 325.554 212.294 328.11 213.438 331.312C214.906 335.424 216.348 338.558 219 342C219.188 344.75 219.188 344.75 219 347C212.6 346.508 212.6 346.508 209.562 343.938C208.789 342.978 208.789 342.978 208 342C208.33 341.67 208.66 341.34 209 341C209 340.01 209 339.02 209 338C209.66 337.34 210.32 336.68 211 336C211.167 333.416 211.167 333.416 211 331C210.34 331 209.68 331 209 331C209 328.69 209 326.38 209 324Z" fill="#44F0C4"/>
<path d="M226 276C226.33 276 226.66 276 227 276C227.222 277.456 227.427 278.915 227.625 280.375C227.741 281.187 227.857 281.999 227.977 282.836C227.984 283.55 227.992 284.264 228 285C227.34 285.66 226.68 286.32 226 287C224.513 289.449 223.973 291.191 223.563 294.062C223 297 223 297 221.497 298.392C219.519 300.516 219.58 301.799 219.488 304.668C219.435 306.007 219.435 306.007 219.381 307.373C219.358 308.302 219.336 309.231 219.313 310.188C219.278 311.128 219.244 312.068 219.209 313.037C219.127 315.358 219.057 317.678 219 320C218.67 320 218.34 320 218 320C216.161 305.036 217.439 288.899 226 276Z" fill="#6FE7E2"/>
<path d="M249 121C252.961 121.566 255.723 122.697 259 125C259.99 126.485 259.99 126.485 261 128C261.804 128.227 262.609 128.454 263.438 128.688C266.485 130.248 266.664 131.013 267.812 134.125C268.227 135.411 268.628 136.701 269 138C268.34 138 267.68 138 267 138C266.67 137.34 266.34 136.68 266 136C264.098 135.399 264.098 135.399 262 135C261.01 134.67 260.02 134.34 259 134C258.67 132.02 258.34 130.04 258 128C254.306 126.769 251.794 127.356 248 128C248.33 125.69 248.66 123.38 249 121Z" fill="#41D8E2"/>
<path d="M269 306C269.667 308 270.333 310 271 312C270.01 312.495 270.01 312.495 269 313C268.876 313.763 268.752 314.526 268.625 315.312C267.851 318.64 266.418 319.656 264 322C262.639 324.524 262.639 324.524 262 327C262.33 327.66 262.66 328.32 263 329C261.68 329.99 260.36 330.98 259 332C258 331 258 331 257.875 327.375C258.682 320.246 263.935 311.065 269 306Z" fill="#77B4F3"/>
<path d="M289 283C289.66 283.33 290.32 283.66 291 284C290.34 285.32 289.68 286.64 289 288C288.01 288 287.02 288 286 288C286.206 288.763 286.412 289.526 286.625 290.312C287 293 287 293 285 296C282.375 297.188 282.375 297.188 280 298C280 298.99 280 299.98 280 301C279.34 301.33 278.68 301.66 278 302C277.67 302.66 277.34 303.32 277 304C276.34 304 275.68 304 275 304C273.323 304.639 271.654 305.303 270 306C270 305.34 270 304.68 270 304C270.66 304 271.32 304 272 304C272.66 302.35 273.32 300.7 274 299C274.66 299 275.32 299 276 299C276.309 298.381 276.619 297.762 276.938 297.125C277.625 295.75 278.312 294.375 279 293C279.66 293 280.32 293 281 293C281 292.34 281 291.68 281 291C281.66 291 282.32 291 283 291C283 290.34 283 289.68 283 289C283.66 289 284.32 289 285 289C285 288.34 285 287.68 285 287C285.66 287 286.32 287 287 287C287 286.34 287 285.68 287 285C287.66 285 288.32 285 289 285C289 284.34 289 283.68 289 283Z" fill="#7097F2"/>
<path d="M314 170C318.115 171.488 319.247 173.713 321.125 177.562C326.109 188.197 326.255 197.459 326 209C325.67 209 325.34 209 325 209C324.939 208.024 324.879 207.048 324.816 206.043C324.691 204.135 324.691 204.135 324.562 202.188C324.481 200.923 324.4 199.658 324.316 198.355C324.128 195.008 324.128 195.008 323 192C322.34 191.67 321.68 191.34 321 191C321 190.34 321 189.68 321 189C320.575 187.324 320.112 185.659 319.625 184C319.37 183.113 319.115 182.226 318.852 181.312C318.128 178.848 318.128 178.848 316 177C315.627 175.342 315.293 173.674 315 172C314.67 171.34 314.34 170.68 314 170Z" fill="#C086EF"/>
<path d="M266 131C273.061 137.231 277.958 145.795 280 155C280 156.32 280 157.64 280 159C279.34 159 278.68 159 278 159C277.67 158.34 277.34 157.68 277 157C276.34 157 275.68 157 275 157C275.33 154.69 275.66 152.38 276 150C274.68 149.67 273.36 149.34 272 149C272.66 149 273.32 149 274 149C273.894 146.548 273.894 146.548 273 144C270.524 142.625 270.524 142.625 268 142C267.772 140.014 267.544 138.029 267.316 136.043C267.028 133.806 267.028 133.806 266 131Z" fill="#53C6E9"/>
<path d="M253 242C253.66 242.33 254.32 242.66 255 243C254.06 243.888 254.06 243.888 253.102 244.793C252.284 245.583 251.467 246.373 250.625 247.188C249.813 247.965 249.001 248.742 248.164 249.543C244.806 253.355 244 255.934 244 261C244 261.66 244 262.32 244 263C238.555 264.485 238.555 264.485 233 266C233 265.34 233 264.68 233 264C233.66 264 234.32 264 235 264C235.278 263 235.278 263 235.562 261.98C237.624 257.706 240.724 254.704 244 251.312C244.963 250.298 244.963 250.298 245.945 249.264C248.273 246.817 250.612 244.388 253 242Z" fill="#84E2F0"/>
<path d="M229 240C230.98 240 232.96 240 235 240C233 242.667 231 245.333 229 248C228.481 248.748 227.961 249.495 227.426 250.266C226.955 250.838 226.485 251.41 226 252C225.34 252 224.68 252 224 252C223.752 252.866 223.505 253.733 223.25 254.625C221.928 258.195 220.255 260.944 218 264C217.67 264 217.34 264 217 264C217 261.69 217 259.38 217 257C217.99 257 218.98 257 220 257C220.33 254.69 220.66 252.38 221 250C221.99 250 222.98 250 224 250C224.66 248.02 225.32 246.04 226 244C227.32 244 228.64 244 230 244C229.67 242.68 229.34 241.36 229 240Z" fill="#5CE5D6"/>
<path d="M292 194C292.66 194.33 293.32 194.66 294 195C293.814 195.701 293.629 196.402 293.438 197.125C292.948 200.339 293.338 202.836 294 206C293.031 206.392 292.061 206.784 291.062 207.188C287.778 208.676 287.778 208.676 287.125 211.688C287.084 212.451 287.043 213.214 287 214C286.34 213.67 285.68 213.34 285 213C282.902 213.399 282.902 213.399 281 214C281.66 212.35 282.32 210.7 283 209C283.66 209 284.32 209 285 209C285.248 208.154 285.495 207.309 285.75 206.438C287.142 202.609 288.916 199.495 291 196C291.33 195.34 291.66 194.68 292 194Z" fill="#6284F6"/>
<path d="M272 193C272.99 193.33 273.98 193.66 275 194C273.472 198.62 270.967 201.977 268 205.75C267.549 206.339 267.098 206.928 266.633 207.535C263.268 211.866 263.268 211.866 261 213C261 211.35 261 209.7 261 208C261.66 208 262.32 208 263 208C263.093 206.577 263.093 206.577 263.188 205.125C263.456 204.094 263.724 203.062 264 202C265.667 201.333 267.333 200.667 269 200C269.74 196.977 269.74 196.977 270 194C270.66 193.67 271.32 193.34 272 193Z" fill="#7BC6F1"/>
<path d="M229 135C232 136 232 136 233.125 137.938C233.414 138.618 233.702 139.299 234 140C234.33 140.66 234.66 141.32 235 142C235.365 145.656 235.468 149.33 235.625 153C235.677 154.024 235.728 155.047 235.781 156.102C235.847 157.567 235.847 157.567 235.914 159.062C235.955 159.961 235.996 160.859 236.038 161.785C236 164 236 164 235 166C234.01 166 233.02 166 232 166C231.67 166.66 231.34 167.32 231 168C231.16 167.161 231.32 166.322 231.484 165.457C232.772 156.822 233.069 147.886 229.656 139.734C229 138 229 138 229 135Z" fill="#6EEBD0"/>
<path d="M257 374C256.34 374.66 255.68 375.32 255 376C254.216 375.959 253.432 375.918 252.625 375.875C249.893 375.766 249.893 375.766 247.75 377.625C245.675 380.441 245.313 382.552 245 386C246.32 386 247.64 386 249 386C249.33 387.32 249.66 388.64 250 390C252.31 390.33 254.62 390.66 257 391C257 391.33 257 391.66 257 392C251.941 392.595 249.013 392.79 244.875 389.563C242.534 386.128 242.505 383.075 243.23 379.063C244 377 244 377 246.625 374.375C250.607 372.753 252.868 373.008 257 374Z" fill="#7DC3EE"/>
<path d="M186 320C188.475 320.99 188.475 320.99 191 322C191 322.66 191 323.32 191 324C193.97 324.495 193.97 324.495 197 325C196.67 325.66 196.34 326.32 196 327C196 327.66 196 328.32 196 329C196.99 329.33 197.98 329.66 199 330C199.062 330.784 199.124 331.567 199.188 332.375C199.456 333.241 199.724 334.108 200 335C201.654 335.697 203.323 336.361 205 337C206.812 339.625 206.812 339.625 208 342C206.35 341.34 204.7 340.68 203 340C203 339.34 203 338.68 203 338C202.34 338 201.68 338 201 338C201 337.34 201 336.68 201 336C200.443 335.773 199.886 335.546 199.312 335.312C196.338 333.624 194.28 331.533 192 329C192 328.34 192 327.68 192 327C191.34 327 190.68 327 190 327C189.34 325.35 188.68 323.7 188 322C187.34 322 186.68 322 186 322C186 321.34 186 320.68 186 320Z" fill="#82F4B4"/>
<path d="M182 234C182.66 235.32 183.32 236.64 184 238C183.381 238.516 182.762 239.031 182.125 239.562C179.525 242.545 178.881 245.184 178 249C177.34 249 176.68 249 176 249C175.876 249.66 175.752 250.32 175.625 251C174.855 254.697 173.93 258.34 173 262C172.67 262 172.34 262 172 262C172.31 256.108 173.501 250.795 175.312 245.188C175.614 244.219 175.614 244.219 175.921 243.23C177.261 239.243 178.788 236.719 182 234Z" fill="#9BF7AB"/>
<path d="M244 315C245.65 315 247.3 315 249 315C248.567 316.632 248.567 316.632 248.125 318.297C245.898 327 244.372 334.942 245 344C242.773 340.382 242.579 337.067 242.312 332.875C242.226 331.635 242.14 330.395 242.051 329.117C242 326 242 326 243 324C242.01 324 241.02 324 240 324C240.33 323.01 240.66 322.02 241 321C241.33 321.66 241.66 322.32 242 323C242.66 323 243.32 323 244 323C243.67 322.01 243.34 321.02 243 320C243.66 320 244.32 320 245 320C244.67 318.35 244.34 316.7 244 315Z" fill="#81D1F6"/>
<path d="M270 225C270.66 225.33 271.32 225.66 272 226C271.463 227.654 270.894 229.298 270.312 230.938C269.999 231.854 269.686 232.771 269.363 233.715C268 236 268 236 265.48 236.816C263 237 263 237 261 237C261 237.99 261 238.98 261 240C259.02 240.66 257.04 241.32 255 242C255 241.34 255 240.68 255 240C255.66 240 256.32 240 257 240C257 239.34 257 238.68 257 238C258.574 236.484 258.574 236.484 260.688 234.75C264.24 231.74 267.14 228.665 270 225Z" fill="#6CBEF0"/>
<path d="M297 177C298.429 179.354 299.087 180.48 298.625 183.25C298.316 184.116 298.316 184.116 298 185C298.66 185 299.32 185 300 185C300.812 188.188 300.812 188.188 301 192C298.562 194.938 298.562 194.938 296 197C296.66 195.35 297.32 193.7 298 192C296.68 192 295.36 192 294 192C293.67 192.66 293.34 193.32 293 194C294.239 188.307 295.563 182.646 297 177Z" fill="#9093F7"/>
<path d="M221 296C222.062 297.812 222.062 297.812 223 300C222.67 300.99 222.34 301.98 222 303C221.051 308.117 220.401 312.261 223 317C222.34 317 221.68 317 221 317C221.186 317.701 221.371 318.402 221.562 319.125C222.052 322.339 221.662 324.836 221 328C219.06 324.733 218.743 322.276 218.734 318.5C218.732 317.448 218.729 316.396 218.727 315.312C218.734 314.219 218.742 313.126 218.75 312C218.738 310.36 218.738 310.36 218.727 308.688C218.729 307.636 218.732 306.584 218.734 305.5C218.737 304.541 218.739 303.582 218.741 302.594C219.007 299.93 219.644 298.284 221 296Z" fill="#50E1DF"/>
<path d="M304 272C304.66 272.33 305.32 272.66 306 273C306.33 273.99 306.66 274.98 307 276C306.34 276 305.68 276 305 276C304.794 276.619 304.588 277.238 304.375 277.875C302.419 280.898 300.437 281.228 297 282C296.01 281.67 295.02 281.34 294 281C293.67 281.99 293.34 282.98 293 284C292.34 283.67 291.68 283.34 291 283C291 282.34 291 281.68 291 281C293.138 279.373 295.268 277.86 297.5 276.375C298.12 275.955 298.74 275.535 299.379 275.102C300.915 274.062 302.457 273.03 304 272Z" fill="#988FF2"/>
<path d="M208 281C209.214 284.548 208.745 287.052 208 290.688C206.187 301.468 207.59 312.238 209 323C207.029 321.82 207.029 321.82 205 320C204.514 317.647 204.514 317.647 204.539 314.879C204.542 313.866 204.544 312.853 204.547 311.809C204.572 310.738 204.598 309.666 204.625 308.562C204.639 307.478 204.652 306.393 204.666 305.275C204.831 296.942 205.348 288.955 208 281Z" fill="#B6FCE7"/>
<path d="M310.164 269.805C311.382 269.839 311.382 269.839 312.625 269.875C313.851 269.902 313.851 269.902 315.102 269.93C316.041 269.964 316.041 269.964 317 270C316.67 270.99 316.34 271.98 316 273C315.01 273 314.02 273 313 273C311.68 275.31 310.36 277.62 309 280C308.67 279.01 308.34 278.02 308 277C307.67 277.66 307.34 278.32 307 279C306.34 279 305.68 279 305 279C305.248 278.103 305.248 278.103 305.5 277.188C306.111 274.887 306.111 274.887 306 272C308 270 308 270 310.164 269.805Z" fill="#9461EA"/>
<path d="M224 181C225.188 182.625 225.188 182.625 226 185C224.625 188.25 224.625 188.25 223 191C221.68 190.67 220.36 190.34 219 190C218.897 190.763 218.794 191.526 218.688 192.312C217.95 195.197 217.468 196.355 215 198C212.812 197.688 212.812 197.688 211 197C212.281 195.293 213.618 193.626 215 192C215.66 192 216.32 192 217 192C217.227 191.484 217.454 190.969 217.688 190.438C219.498 187.076 221.74 184.071 224 181Z" fill="#81F1D0"/>
<path d="M291 256C291.99 256.33 292.98 256.66 294 257C294.33 257.99 294.66 258.98 295 260C294.34 260 293.68 260 293 260C293 260.66 293 261.32 293 262C291.426 263.586 291.426 263.586 289.312 265.375C288.587 265.992 287.861 266.61 287.113 267.246C284.766 269.195 282.404 271.122 280 273C280 271.68 280 270.36 280 269C280.66 269 281.32 269 282 269C282.66 267.35 283.32 265.7 284 264C284.99 264 285.98 264 287 264C287.33 262.68 287.66 261.36 288 260C288.66 260 289.32 260 290 260C290.33 258.68 290.66 257.36 291 256Z" fill="#87A2ED"/>
<path d="M224 246C224.33 246 224.66 246 225 246C225 247.65 225 249.3 225 251C223.68 250.67 222.36 250.34 221 250C220.67 252.31 220.34 254.62 220 257C219.01 257 218.02 257 217 257C217 258.32 217 259.64 217 261C216.34 261 215.68 261 215 261C214.688 255.801 215.077 252.384 218 248C220.125 247.062 220.125 247.062 222 247C222.33 247.33 222.66 247.66 223 248C223.33 247.34 223.66 246.68 224 246Z" fill="#31EBD3"/>
<path d="M251 248C251.33 248.66 251.66 249.32 252 250C252.99 250.33 253.98 250.66 255 251C254.25 252.938 254.25 252.938 253 255C251.675 255.365 250.34 255.694 249 256C247.293 257.281 245.617 258.607 244 260C243.34 259.34 242.68 258.68 242 258C244.319 253.491 247.065 251.061 251 248Z" fill="#3CCDF5"/>
<path d="M257 375C260.875 376.875 260.875 376.875 262 378C262.072 379.686 262.084 381.375 262.063 383.062C262.053 383.982 262.044 384.901 262.035 385.848C262.024 386.558 262.012 387.268 262 388C260.68 388.33 259.36 388.66 258 389C257.348 384.276 256.88 379.78 257 375Z" fill="#86B4ED"/>
<path d="M243 115C246.916 115.783 250.364 117.392 254 119C254 119.66 254 120.32 254 121C254.701 121.227 255.402 121.454 256.125 121.688C259.693 123.317 262.065 125.406 265 128C264.67 128.66 264.34 129.32 264 130C261.5 128.625 261.5 128.625 259 127C259 126.34 259 125.68 259 125C258.402 124.856 257.804 124.711 257.188 124.562C255.438 124.113 253.713 123.571 252 123C252 122.34 252 121.68 252 121C251.01 121 250.02 121 249 121C249 120.34 249 119.68 249 119C248.01 119 247.02 119 246 119C244.312 117 244.312 117 243 115Z" fill="#85E6E3"/>
<path d="M198 322C198.248 322.639 198.495 323.279 198.75 323.938C199.816 326.187 199.816 326.187 202.125 326.75C202.744 326.833 203.363 326.915 204 327C203.502 330.688 202.899 332.605 200 335C199.67 333.35 199.34 331.7 199 330C198.361 329.897 197.721 329.794 197.062 329.688C196.382 329.461 195.701 329.234 195 329C194.67 328.01 194.34 327.02 194 326C194.66 325.67 195.32 325.34 196 325C196.66 324.01 197.32 323.02 198 322Z" fill="#36FB96"/>
<path d="M317 270C320.791 271.633 322.451 273.504 324.25 277.293C325.833 283.007 325.275 289.124 325 295C324.67 295 324.34 295 324 295C324 290.71 324 286.42 324 282C323.34 282 322.68 282 322 282C319 275.25 319 275.25 319 273C318.34 273 317.68 273 317 273C317 272.01 317 271.02 317 270Z" fill="#A664E9"/>
<path d="M293 333C289.25 336 289.25 336 287 336C287 336.66 287 337.32 287 338C285.35 338.66 283.7 339.32 282 340C282 340.66 282 341.32 282 342C280.374 343.382 278.707 344.719 277 346C276.34 345.67 275.68 345.34 275 345C275.66 343.68 276.32 342.36 277 341C277.66 341 278.32 341 279 341C279 340.34 279 339.68 279 339C279.99 339 280.98 339 282 339C282 338.34 282 337.68 282 337C282.66 337 283.32 337 284 337C284.33 336.01 284.66 335.02 285 334C290.402 331.701 290.402 331.701 293 333Z" fill="#99ADEF"/>
<path d="M311.375 169.688C314 170 314 170 315.75 171.688C317.082 174.151 317.616 176.237 318 179C313.923 179 312.168 177.479 309 175C308.062 172.812 308.062 172.812 308 171C309 170 309 170 311.375 169.688Z" fill="#9341F1"/>
<path d="M313 234C313.99 234.33 314.98 234.66 316 235C316 235.66 316 236.32 316 237C315.34 237 314.68 237 314 237C313.752 237.722 313.505 238.444 313.25 239.188C311.89 242.247 310.171 244.467 308 247C306 246 306 246 305.312 244.062C305 242 305 242 306 240C306.804 239.711 307.609 239.423 308.437 239.125C311.136 238.229 311.136 238.229 312.312 235.875C312.539 235.256 312.766 234.637 313 234Z" fill="#A080ED"/>
<path d="M317 224C317.66 224 318.32 224 319 224C319.492 230.4 319.492 230.4 317 233.438C316.01 234.211 316.01 234.211 315 235C312 229.25 312 229.25 312 227C313.65 226.67 315.3 226.34 317 226C317 225.34 317 224.68 317 224Z" fill="#9555EF"/>
<path d="M278 159C278.66 159 279.32 159 280 159C279.67 164.61 279.34 170.22 279 176C278.01 175.67 277.02 175.34 276 175C275.946 173.271 275.907 171.542 275.875 169.812C275.852 168.85 275.829 167.887 275.805 166.895C276.009 163.872 276.731 161.732 278 159Z" fill="#40B1F9"/>
<path d="M249 121C252.941 121.563 255.751 122.679 259 125C259 125.66 259 126.32 259 127C255.37 127.33 251.74 127.66 248 128C248.33 125.69 248.66 123.38 249 121Z" fill="#34E3DE"/>
<path d="M314 314C313.049 315.173 312.089 316.338 311.125 317.5C310.324 318.475 310.324 318.475 309.508 319.469C309.01 319.974 308.513 320.479 308 321C307.34 321 306.68 321 306 321C305.67 321.99 305.34 322.98 305 324C304.01 324.33 303.02 324.66 302 325C302 324.01 302 323.02 302 322C301.34 321.67 300.68 321.34 300 321C301.32 321 302.64 321 304 321C304.433 320.041 304.433 320.041 304.875 319.062C306 317 306 317 308 316C308 315.34 308 314.68 308 314C311 313 311 313 314 314Z" fill="#A08BEC"/>
<path d="M176 249C177.746 251.619 178.387 253.038 179 256C177.68 256 176.36 256 175 256C175.023 256.58 175.046 257.16 175.07 257.758C175.183 262.614 174.875 266.429 173 271C172.67 271 172.34 271 172 271C171.458 262.998 173.392 256.534 176 249Z" fill="#5CF36C"/>
<path d="M191 224C191.33 226.31 191.66 228.62 192 231C187.25 232.125 187.25 232.125 185 231C185.312 228.625 185.312 228.625 186 226C189 224 189 224 191 224Z" fill="#41FA79"/>
<path d="M275.562 223.938C276.769 223.968 276.769 223.968 278 224C277.67 225.65 277.34 227.3 277 229C275.02 229.66 273.04 230.32 271 231C271.33 231.99 271.66 232.98 272 234C271.01 234 270.02 234 269 234C269.476 232.52 269.956 231.041 270.438 229.562C270.704 228.739 270.971 227.915 271.246 227.066C272.359 224.016 272.359 224.016 275.562 223.938Z" fill="#49A3F6"/>
<path d="M255 336C255.33 336 255.66 336 256 336C256.217 337.423 256.217 337.423 256.438 338.875C256.829 341.893 256.829 341.893 258 344C258.66 344 259.32 344 260 344C260 344.66 260 345.32 260 346C259.34 346 258.68 346 258 346C258.206 347.114 258.413 348.227 258.625 349.375C258.749 350.571 258.873 351.768 259 353C258.34 353.66 257.68 354.32 257 355C255.277 350.537 254.778 346.898 254.875 342.125C254.893 340.973 254.911 339.82 254.93 338.633C254.953 337.764 254.976 336.895 255 336Z" fill="#98CAF6"/>
<path d="M210 198C210.33 199.32 210.66 200.64 211 202C210.01 202 209.02 202 208 202C207.845 202.866 207.845 202.866 207.688 203.75C206.865 206.443 205.996 208.004 204 210C201.312 210.25 201.312 210.25 199 210C202.509 205.816 206.081 201.804 210 198Z" fill="#7CF2C2"/>
<path d="M275 145C277 146 277 146 277.852 147.926C278.107 148.713 278.362 149.501 278.625 150.312C278.885 151.092 279.146 151.872 279.414 152.676C280 155 280 155 280 159C279.34 159 278.68 159 278 159C277.67 158.34 277.34 157.68 277 157C276.34 157 275.68 157 275 157C275.33 154.69 275.66 152.38 276 150C274.68 149.67 273.36 149.34 272 149C272.99 149 273.98 149 275 149C275 147.68 275 146.36 275 145Z" fill="#67C3ED"/>
<path d="M203 281C204.32 281.66 205.64 282.32 207 283C206.551 284.648 206.091 286.294 205.625 287.938C205.37 288.854 205.115 289.771 204.852 290.715C204 293 204 293 202 294C202.021 292.928 202.041 291.855 202.062 290.75C202.156 287.204 202.156 287.204 201.375 284.688C201.251 284.131 201.127 283.574 201 283C201.66 282.34 202.32 281.68 203 281Z" fill="#31F8A6"/>
<path d="M250 219C254 219 254 219 256 220C254.02 220.99 254.02 220.99 252 222C252 222.66 252 223.32 252 224C251.34 224 250.68 224 250 224C250 224.66 250 225.32 250 226C249.34 226 248.68 226 248 226C247.34 227.32 246.68 228.64 246 230C245.34 229.67 244.68 229.34 244 229C244.564 225.729 245.457 224.136 248 222C248.66 221.67 249.32 221.34 250 221C250 220.34 250 219.68 250 219Z" fill="#80DEEE"/>
<path d="M324 194C324.33 194 324.66 194 325 194C325.054 196.584 325.094 199.166 325.125 201.75C325.142 202.48 325.159 203.209 325.176 203.961C325.211 207.804 325.175 210.746 323 214C322.057 207.503 321.84 201.494 323 195C323.33 194.67 323.66 194.34 324 194Z" fill="#8D3ED7"/>
<path d="M234.562 112.75C235.709 112.742 235.709 112.742 236.879 112.734C239 113 239 113 242 115C236.39 115.99 230.78 116.98 225 118C226 115 226 115 227.777 113.828C230.189 112.929 231.996 112.733 234.562 112.75Z" fill="#99F1E7"/>
<path d="M266 201C266.66 201.99 267.32 202.98 268 204C264.375 210.75 264.375 210.75 261 213C261 211.35 261 209.7 261 208C261.66 208 262.32 208 263 208C263.124 207.031 263.248 206.061 263.375 205.062C263.581 204.052 263.787 203.041 264 202C264.66 201.67 265.32 201.34 266 201Z" fill="#6AC3ED"/>
<path d="M312 168C312.66 168.66 313.32 169.32 314 170C312.763 170.124 311.525 170.248 310.25 170.375C307.075 170.756 304.827 171.478 302 173C301.34 172.67 300.68 172.34 300 172C300 171.34 300 170.68 300 170C304.437 167.359 306.982 166.517 312 168Z" fill="#AA8CEE"/>
<path d="M278 295C278.144 295.598 278.289 296.196 278.438 296.812C278.887 298.562 279.429 300.287 280 302C279.34 302 278.68 302 278 302C277.67 302.66 277.34 303.32 277 304C276.34 304 275.68 304 275 304C273.323 304.639 271.654 305.303 270 306C270 305.34 270 304.68 270 304C270.66 304 271.32 304 272 304C272.66 302.35 273.32 300.7 274 299C274.66 299 275.32 299 276 299C276.66 297.68 277.32 296.36 278 295Z" fill="#86B5F2"/>
<path d="M199 210C200.32 210.33 201.64 210.66 203 211C201.667 213.667 200.333 216.333 199 219C198.01 219 197.02 219 196 219C195.25 217.312 195.25 217.312 195 215C196.938 212.25 196.938 212.25 199 210Z" fill="#44F19C"/>
<path d="M224 118C225.333 120.667 224.671 122.167 224 125C225.65 124.67 227.3 124.34 229 124C229 124.66 229 125.32 229 126C228.34 126 227.68 126 227 126C227 127.32 227 128.64 227 130C227.66 130 228.32 130 229 130C229 131.65 229 133.3 229 135C225.515 133.258 224.321 129.536 223 126C222.688 122.062 222.688 122.062 223 119C223.33 118.67 223.66 118.34 224 118Z" fill="#83F0E4"/>
<path d="M215 338C218.938 341.323 218.938 341.323 219.25 344.75C219.167 345.493 219.085 346.235 219 347C216.657 346.744 214.322 346.407 212 346C211.67 345.34 211.34 344.68 211 344C212.65 344 214.3 344 216 344C215.67 342.02 215.34 340.04 215 338Z" fill="#9CEFDF"/>
<path d="M185 314C185.99 314.33 186.98 314.66 188 315C188 315.99 188 316.98 188 318C188.99 318.33 189.98 318.66 191 319C192.356 319.969 193.694 320.964 195 322C193.02 322.99 193.02 322.99 191 324C191 323.34 191 322.68 191 322C188.525 321.01 188.525 321.01 186 320C186 318.68 186 317.36 186 316C185.34 315.67 184.68 315.34 184 315C184.33 314.67 184.66 314.34 185 314Z" fill="#42FA7C"/>
<path d="M266 281C266.99 281 267.98 281 269 281C269 282.65 269 284.3 269 286C268.34 286 267.68 286 267 286C266.598 286.835 266.598 286.835 266.188 287.688C264.899 290.197 263.471 292.593 262 295C261.34 294.67 260.68 294.34 260 294C261.32 291.03 262.64 288.06 264 285C264.99 285 265.98 285 267 285C266.67 283.68 266.34 282.36 266 281Z" fill="#8EC9F2"/>
<path d="M222 189C222.33 191.64 222.66 194.28 223 197C220.36 197.33 217.72 197.66 215 198C215.66 197.67 216.32 197.34 217 197C217.33 195.845 217.66 194.69 218 193.5C218.33 192.345 218.66 191.19 219 190C221 189 221 189 222 189Z" fill="#30F6B7"/>
<path d="M229 336C229.99 336.33 230.98 336.66 232 337C231.34 338.65 230.68 340.3 230 342C230.66 342 231.32 342 232 342C232 342.99 232 343.98 232 345C229.525 344.01 229.525 344.01 227 343C227 341.02 227 339.04 227 337C227.66 336.67 228.32 336.34 229 336Z" fill="#4AD1EB"/>
<path d="M294 192C295.32 192 296.64 192 298 192C297.34 195.3 296.68 198.6 296 202C295.01 202 294.02 202 293 202C291.533 198.185 292.567 195.71 294 192Z" fill="#687CF6"/>
<path d="M229 344C231.802 344.352 232.794 344.752 234.633 346.961C235.125 347.758 235.618 348.554 236.125 349.375C236.623 350.166 237.12 350.958 237.633 351.773C238.084 352.508 238.535 353.243 239 354C239.99 355.485 239.99 355.485 241 357C238.378 355.951 237.206 355.351 235.75 352.875C235.502 352.256 235.255 351.637 235 351C234.34 351 233.68 351 233 351C233 350.34 233 349.68 233 349C232.34 349 231.68 349 231 349C230.34 347.35 229.68 345.7 229 344Z" fill="#A3E1F5"/>
<path d="M277 336C277.66 336.33 278.32 336.66 279 337C279 338.32 279 339.64 279 341C278.34 341 277.68 341 277 341C276.67 342.32 276.34 343.64 276 345C275.01 345 274.02 345 273 345C273 343.02 273 341.04 273 339C273.99 339 274.98 339 276 339C276.33 338.01 276.66 337.02 277 336Z" fill="#5988F6"/>
<path d="M257 332C258.562 333.188 258.562 333.188 260 335C259.812 337.25 259.812 337.25 259 340C258.649 341.258 258.299 342.516 257.938 343.812C257.628 344.864 257.319 345.916 257 347C256.67 347 256.34 347 256 347C255.973 345.063 255.954 343.125 255.938 341.188C255.926 340.109 255.914 339.03 255.902 337.918C256 335 256 335 257 332Z" fill="#4B98E8"/>
<path d="M288 202C288.562 203.938 288.562 203.938 289 206C288.67 206.33 288.34 206.66 288 207C287.632 209.328 287.298 211.662 287 214C286.34 213.67 285.68 213.34 285 213C282.902 213.399 282.902 213.399 281 214C281.66 212.35 282.32 210.7 283 209C283.66 209 284.32 209 285 209C285.309 208.031 285.619 207.061 285.938 206.062C287 203 287 203 288 202Z" fill="#92B4EE"/>
<path d="M211 198C212.32 198.33 213.64 198.66 215 199C213.688 201.5 213.688 201.5 212 204C211.01 204 210.02 204 209 204C208.34 205.98 207.68 207.96 207 210C206.34 209.01 205.68 208.02 205 207C206.312 204.5 206.312 204.5 208 202C208.99 202 209.98 202 211 202C211 200.68 211 199.36 211 198Z" fill="#35F6AC"/>
<path d="M247 351C248.991 353.986 249.941 356.597 251 360C249.02 360.99 249.02 360.99 247 362C247 360 247 360 248 359C247.67 358.34 247.34 357.68 247 357C246.34 357 245.68 357 245 357C245.875 352.125 245.875 352.125 247 351Z" fill="#78C3EA"/>
<path d="M209 324C211.926 325.463 212.097 327.41 213.188 330.438C213.552 331.426 213.917 332.415 214.293 333.434C215 336 215 336 214 338C213.01 337.34 212.02 336.68 211 336C210.812 333.375 210.812 333.375 211 331C210.34 331 209.68 331 209 331C209 328.69 209 326.38 209 324Z" fill="#7EF0D6"/>
<path d="M221 296C222.062 297.812 222.062 297.812 223 300C222.67 300.99 222.34 301.98 222 303C221.631 304.559 221.278 306.122 220.938 307.688C220.673 308.9 220.673 308.9 220.402 310.137C220.203 311.059 220.203 311.059 220 312C219.67 312 219.34 312 219 312C218.946 310.084 218.907 308.167 218.875 306.25C218.852 305.183 218.829 304.115 218.805 303.016C218.995 300.075 219.473 298.476 221 296Z" fill="#3BE3DB"/>
<path d="M305 247C305 250 305 250 303.25 252.043C302.507 252.751 301.765 253.458 301 254.188C300.257 254.903 299.515 255.618 298.75 256.355C298.173 256.898 297.595 257.441 297 258C296.67 257.01 296.34 256.02 296 255C296.66 255 297.32 255 298 255C298 254.01 298 253.02 298 252C298.66 252 299.32 252 300 252C299.67 251.01 299.34 250.02 299 249C300.207 248.783 300.207 248.783 301.438 248.562C303.921 248.259 303.921 248.259 305 247Z" fill="#A8A5EE"/>
<path d="M238 230C238.928 230.278 238.928 230.278 239.875 230.562C242.042 231.237 242.042 231.237 244 230C243.34 231.32 242.68 232.64 242 234C241.34 234 240.68 234 240 234C239.732 234.619 239.464 235.238 239.188 235.875C238 238 238 238 235 240C235 239.01 235 238.02 235 237C235.66 237 236.32 237 237 237C237.33 234.69 237.66 232.38 238 230Z" fill="#7DE3E8"/>
<path d="M301 171C301.99 171.33 302.98 171.66 304 172C305.37 175.197 304.825 177.699 304 181C303.01 181.33 302.02 181.66 301 182C301 180.35 301 178.7 301 177C300.34 177 299.68 177 299 177C299 176.34 299 175.68 299 175C299.66 175 300.32 175 301 175C300.67 174.01 300.34 173.02 300 172C300.33 171.67 300.66 171.34 301 171Z" fill="#7C63F2"/>
<path d="M272 345C272.99 345.33 273.98 345.66 275 346C274.046 347.149 273.086 348.294 272.125 349.438C271.591 350.076 271.058 350.714 270.508 351.371C269 353 269 353 267 354C267 352.68 267 351.36 267 350C267.66 350 268.32 350 269 350C269 349.01 269 348.02 269 347C269.99 346.34 270.98 345.68 272 345Z" fill="#87AEEA"/>
<path d="M323 282C323.33 282 323.66 282 324 282C324.081 284.104 324.139 286.208 324.188 288.312C324.222 289.484 324.257 290.656 324.293 291.863C324 295 324 295 322.488 296.918C321.997 297.275 321.506 297.632 321 298C320.67 296.35 320.34 294.7 320 293C320.99 292.67 321.98 292.34 323 292C322.722 290.639 322.722 290.639 322.438 289.25C322.043 286.317 322.053 284.736 323 282Z" fill="#933BE8"/>
<path d="M232 232C233.98 232 235.96 232 238 232C238.33 232.66 238.66 233.32 239 234C238.34 234 237.68 234 237 234C237 234.99 237 235.98 237 237C236.34 237 235.68 237 235 237C235 237.99 235 238.98 235 240C233.68 240 232.36 240 231 240C231 239.34 231 238.68 231 238C231.99 238 232.98 238 234 238C233.34 236.02 232.68 234.04 232 232Z" fill="#37DDE3"/>
<path d="M224 181C225.188 182.625 225.188 182.625 226 185C224.625 188.25 224.625 188.25 223 191C222.01 190.67 221.02 190.34 220 190C220.531 186.179 221.497 183.938 224 181Z" fill="#63F2C8"/>
<path d="M229 135C232 136 232 136 233.125 137.688C234.164 140.434 234.604 143.097 235 146C234.01 146.33 233.02 146.66 232 147C231.494 145.564 230.996 144.126 230.5 142.688C230.222 141.887 229.943 141.086 229.656 140.262C229 138 229 138 229 135Z" fill="#81F3E2"/>
<path d="M234 115C235.437 114.946 236.875 114.907 238.312 114.875C239.113 114.852 239.914 114.829 240.738 114.805C243 115 243 115 246 117C246 117.66 246 118.32 246 119C246.99 119.33 247.98 119.66 249 120C248.01 120.33 247.02 120.66 246 121C245.67 120.01 245.34 119.02 245 118C242.69 118 240.38 118 238 118C238 117.34 238 116.68 238 116C236.68 115.67 235.36 115.34 234 115Z" fill="#3FE2D5"/>
<path d="M286 329C286.369 333.554 286.369 333.554 284.5 335.812C284.005 336.204 283.51 336.596 283 337C281 334 281 334 281.25 331.875C282.285 329.287 283.27 329 286 329Z" fill="#627EFB"/>
<path d="M253 296C255.514 297.257 256.743 298.486 258 301C257.34 301 256.68 301 256 301C255.67 302.32 255.34 303.64 255 305C254.34 303.68 253.68 302.36 253 301C252.01 301.495 252.01 301.495 251 302C251 300.35 251 298.7 251 297C251.66 296.67 252.32 296.34 253 296Z" fill="#68C8F9"/>
<path d="M258 288C258.99 288 259.98 288 261 288C261.931 290.606 262.149 291.642 261.062 294.25C260.537 295.116 260.537 295.116 260 296C259.34 296 258.68 296 258 296C257.34 294.35 256.68 292.7 256 291C256.66 290.67 257.32 290.34 258 290C258 289.34 258 288.68 258 288Z" fill="#44B0F5"/>
<path d="M250 304C251.98 304.495 251.98 304.495 254 305C252.667 308.333 251.333 311.667 250 315C249.67 315 249.34 315 249 315C248.857 307.571 248.857 307.571 250 304Z" fill="#7ECEF1"/>
<path d="M237 264C237.66 264.99 238.32 265.98 239 267C238.67 267.66 238.34 268.32 238 269C238.66 269.33 239.32 269.66 240 270C239.67 270.66 239.34 271.32 239 272C237.062 271.188 237.062 271.188 235 270C234.67 269.01 234.34 268.02 234 267C234.99 266.01 235.98 265.02 237 264Z" fill="#35D7ED"/>
<path d="M241 224C242.32 224 243.64 224 245 224C245.25 226.312 245.25 226.312 245 229C243 230.812 243 230.812 241 232C240.67 230.68 240.34 229.36 240 228C240.66 228 241.32 228 242 228C241.67 226.68 241.34 225.36 241 224Z" fill="#39D1E6"/>
<path d="M259 350C261.97 350.495 261.97 350.495 265 351C265 351.99 265 352.98 265 354C263.02 354.66 261.04 355.32 259 356C258 353 258 353 259 350Z" fill="#5296F3"/>
<path d="M216 264C216 267.196 215.453 268.417 214 271.188C213.629 271.903 213.257 272.618 212.875 273.355C212.586 273.898 212.298 274.441 212 275C211.67 275 211.34 275 211 275C211 273.02 211 271.04 211 269C211.66 269 212.32 269 213 269C213.124 268.361 213.248 267.721 213.375 267.062C213.581 266.382 213.787 265.701 214 265C214.66 264.67 215.32 264.34 216 264Z" fill="#8AF0DA"/>
<path d="M231 174C231.33 175.32 231.66 176.64 232 178C231.01 178.495 231.01 178.495 230 179C230.33 179.66 230.66 180.32 231 181C230.01 182.32 229.02 183.64 228 185C227.375 182.188 227.375 182.188 227 179C227.66 178.01 228.32 177.02 229 176C229.66 176 230.32 176 231 176C231 175.34 231 174.68 231 174Z" fill="#2DF5BE"/>
<path d="M198 334C202.957 335.239 205.117 336.786 208 341C205 341 205 341 203 340C203 339.34 203 338.68 203 338C202.34 338 201.68 338 201 338C201 337.34 201 336.68 201 336C200.01 335.67 199.02 335.34 198 335C198 334.67 198 334.34 198 334Z" fill="#89F1CD"/>
<path d="M261 321C262.461 323.647 263 324.894 263 328C261 330.188 261 330.188 259 332C257.875 328.25 257.875 328.25 259 326C259.66 326 260.32 326 261 326C261 324.35 261 322.7 261 321Z" fill="#4D9CED"/>
<path d="M180 310C180.99 310.33 181.98 310.66 183 311C183 311.99 183 312.98 183 314C183.66 314.33 184.32 314.66 185 315C186.125 317.062 186.125 317.062 187 319C186.01 319 185.02 319 184 319C180 312.25 180 312.25 180 310Z" fill="#87F39F"/>
<path d="M227 239C228.32 240.32 229.64 241.64 231 243C230.01 243.99 229.02 244.98 228 246C228 245.34 228 244.68 228 244C226.68 243.34 225.36 242.68 224 242C224.99 241.01 225.98 240.02 227 239Z" fill="#38DEDC"/>
<path d="M186 320C188.475 320.99 188.475 320.99 191 322C191 322.66 191 323.32 191 324C193.97 324.495 193.97 324.495 197 325C196.67 325.66 196.34 326.32 196 327C192.562 326.188 192.562 326.188 189 325C188.67 324.01 188.34 323.02 188 322C187.34 322 186.68 322 186 322C186 321.34 186 320.68 186 320Z" fill="#65F59B"/>
<path d="M323 277C325.454 280.681 325.228 283.444 325.125 287.688C325.116 288.389 325.107 289.091 325.098 289.814C325.074 291.543 325.038 293.272 325 295C324.67 295 324.34 295 324 295C324 290.71 324 286.42 324 282C323.34 282 322.68 282 322 282C322.33 280.35 322.66 278.7 323 277Z" fill="#D6AEF6"/>
<path d="M307 273C307.66 273 308.32 273 309 273C309.33 274.98 309.66 276.96 310 279C309.01 279.495 309.01 279.495 308 280C308 279.01 308 278.02 308 277C307.67 277.66 307.34 278.32 307 279C306.34 279 305.68 279 305 279C305.875 274.125 305.875 274.125 307 273Z" fill="#8854FB"/>
<path d="M232 266C232.75 267.625 232.75 267.625 233 270C231.188 273.25 231.188 273.25 229 276C228.34 276 227.68 276 227 276C228.156 272.088 229.355 269.125 232 266Z" fill="#93E6EB"/>
<path d="M229 240C230.98 240 232.96 240 235 240C232.03 243.96 232.03 243.96 229 248C229 245.333 229 242.667 229 240Z" fill="#8CECEC"/>
<path d="M311.562 169.938C312.769 169.968 312.769 169.968 314 170C314 170.66 314 171.32 314 172C313.34 172 312.68 172 312 172C312 173.32 312 174.64 312 176C311.01 175.67 310.02 175.34 309 175C308.25 173 308.25 173 308 171C309 170 309 170 311.562 169.938Z" fill="#8F4BF4"/>
<path d="M261 132C263.875 132.188 263.875 132.188 267 133C268.375 135.562 268.375 135.562 269 138C268.34 138 267.68 138 267 138C266.67 137.34 266.34 136.68 266 136C265.01 135.783 265.01 135.783 264 135.562C263.34 135.377 262.68 135.191 262 135C261.67 134.01 261.34 133.02 261 132Z" fill="#35D2E7"/>
<path d="M206 314C206.66 314.33 207.32 314.66 208 315C208.594 317.649 208.742 320.292 209 323C207 321.812 207 321.812 205 320C204.688 317.375 204.688 317.375 205 315C205.33 314.67 205.66 314.34 206 314Z" fill="#80F3CD"/>
<path d="M246 379C246.66 379 247.32 379 248 379C248 381.31 248 383.62 248 386C247.01 386 246.02 386 245 386C244.957 384 244.959 382 245 380C245.33 379.67 245.66 379.34 246 379Z" fill="#3FB2FD"/>
<path d="M224 332C225.5 333.125 225.5 333.125 227 335C227.188 338.188 227.188 338.188 227 341C224.428 339.714 223.99 338.666 223 336C223.375 333.75 223.375 333.75 224 332Z" fill="#78E0E7"/>
<path d="M227 276C228.32 276.33 229.64 276.66 231 277C230.67 277.66 230.34 278.32 230 279C230.66 279.66 231.32 280.32 232 281C230.35 281.33 228.7 281.66 227 282C227 280.02 227 278.04 227 276Z" fill="#36E0DE"/>
<path d="M244 315C245.65 315 247.3 315 249 315C248.34 317.31 247.68 319.62 247 322C244.64 319.64 244.509 318.221 244 315Z" fill="#86D2F4"/>
<path d="M221 256C221 259.908 219.494 261.116 217 264C217 261.69 217 259.38 217 257C218.32 256.67 219.64 256.34 221 256Z" fill="#8BEFE3"/>
<path d="M226 244C226.66 244 227.32 244 228 244C228.201 247.716 228.152 248.772 226 252C225.34 251.67 224.68 251.34 224 251C224.66 248.69 225.32 246.38 226 244Z" fill="#64E4E0"/>
<path d="M182 234C182.66 235.32 183.32 236.64 184 238C182.35 239.32 180.7 240.64 179 242C179.75 236.25 179.75 236.25 182 234Z" fill="#4CF770"/>
<path d="M185 226C186 228 186 228 185.312 230.438C183.892 233.211 182.603 234.352 180 236C181.156 232.088 182.355 229.125 185 226Z" fill="#93F5AE"/>
<path d="M276 219C276.99 220.32 277.98 221.64 279 223C278.34 223 277.68 223 277 223C276.67 223.66 276.34 224.32 276 225C274.68 225 273.36 225 272 225C272 224.34 272 223.68 272 223C272.66 223 273.32 223 274 223C274.66 221.68 275.32 220.36 276 219Z" fill="#7FBBEF"/>
<path d="M227 126C227.99 126 228.98 126 230 126C230.66 127.65 231.32 129.3 232 131C230.515 131.99 230.515 131.99 229 133C229 132.01 229 131.02 229 130C228.34 130 227.68 130 227 130C227 128.68 227 127.36 227 126Z" fill="#2FEFD4"/>
<path d="M304 312C305.65 313.65 307.3 315.3 309 317C308.361 317.268 307.721 317.536 307.062 317.812C304.669 318.887 304.669 318.887 304 322C304 318.7 304 315.4 304 312Z" fill="#805EF5"/>
<path d="M323 295C324.392 299.176 322.823 301.135 321 305C320.67 305 320.34 305 320 305C319.631 299.585 319.631 299.585 321.5 296.625C321.995 296.089 322.49 295.553 323 295Z" fill="#B882EA"/>
<path d="M289 283C289.66 283.33 290.32 283.66 291 284C290.34 285.32 289.68 286.64 289 288C288.01 288 287.02 288 286 288C286 288.66 286 289.32 286 290C285.01 290.33 284.02 290.66 283 291C283 290.34 283 289.68 283 289C283.66 289 284.32 289 285 289C285 288.34 285 287.68 285 287C285.66 287 286.32 287 287 287C287 286.34 287 285.68 287 285C287.66 285 288.32 285 289 285C289 284.34 289 283.68 289 283Z" fill="#A1B3F0"/>
<path d="M251 250C252.98 250.495 252.98 250.495 255 251C254.34 252.32 253.68 253.64 253 255C252.01 254.67 251.02 254.34 250 254C250.33 252.68 250.66 251.36 251 250Z" fill="#34C5F4"/>
<path d="M261 235C261.33 235.66 261.66 236.32 262 237C261.67 237.99 261.34 238.98 261 240C257.938 241.188 257.938 241.188 255 242C255 241.34 255 240.68 255 240C255.66 240 256.32 240 257 240C257 239.34 257 238.68 257 238C259 236.375 259 236.375 261 235Z" fill="#9CDAF2"/>
<path d="M258 208C258.99 208.33 259.98 208.66 261 209C260.67 210.65 260.34 212.3 260 214C258.68 213.67 257.36 213.34 256 213C256.33 212.34 256.66 211.68 257 211C257.33 210.01 257.66 209.02 258 208Z" fill="#3CC0F1"/>
<path d="M292 194C292.66 194.33 293.32 194.66 294 195C293.34 197.31 292.68 199.62 292 202C291.01 202 290.02 202 289 202C290.875 196.25 290.875 196.25 292 194Z" fill="#93A7EB"/>
<path d="M266 131C270.875 135.625 270.875 135.625 272 139C271.01 139.33 270.02 139.66 269 140C268.01 137.03 267.02 134.06 266 131Z" fill="#80D9EA"/>
<path d="M250 373C253.625 373.375 253.625 373.375 257 374C256.34 374.66 255.68 375.32 255 376C251.375 375.625 251.375 375.625 248 375C248.66 374.34 249.32 373.68 250 373Z" fill="#99CEF3"/>
<path d="M314 314C312.68 315.32 311.36 316.64 310 318C309.34 316.68 308.68 315.36 308 314C311 313 311 313 314 314Z" fill="#9E7CEA"/>
<path d="M263 236C263.99 236.33 264.98 236.66 266 237C266 237.66 266 238.32 266 239C264 240.625 264 240.625 262 242C261.67 240.35 261.34 238.7 261 237C261.66 236.67 262.32 236.34 263 236Z" fill="#40B4F4"/>
<path d="M199 213C199.66 213 200.32 213 201 213C200.67 214.98 200.34 216.96 200 219C198.68 219 197.36 219 196 219C197.875 214.125 197.875 214.125 199 213Z" fill="#32FD91"/>
</svg>
